# xmcd
#
# Track frame offsets: 
#        150
#        18165
#        35781
#        61987
#        78350
#        91785
#        115071
#        136641
#        163763
#        194177
#        219592
#        243724
#        283716
#        307115
#
# Disc length: 4515 seconds
#
# Revision: 1
# Processed by: cddbd v1.5.2PL0 Copyright (c) Steve Scherf et al.
# Submitted via: ExactAudioCopyFreeDBPlugin 1.0
#
DISCID=c711a10e
DTITLE=Jack McDuff - Jack McDuff:  Eight Classic Albums
DYEAR=2013
DGENRE=Jazz
TTITLE0=Brother Jack
TTITLE1=Mr. Wonderful
TTITLE2=Noon Train
TTITLE3=Drowsy
TTITLE4=Organ Grinder's Swing
TTITLE5=Mack n' Duff
TTITLE6=You're Driving Me Crazy
TTITLE7=Light Blues
TTITLE8=Smooth Sailing
TTITLE9=Mean to Me
TTITLE10=Tippin' In
TTITLE11=Yeah, Baby
TTITLE12=Autumn Leaves
TTITLE13=Tough 'Duff
EXTD=YEAR: 1960
EXTT0=
EXTT1=
EXTT2=
EXTT3=
EXTT4=
EXTT5=
EXTT6=
EXTT7=
EXTT8=
EXTT9=
EXTT10=
EXTT11=
EXTT12=
EXTT13=
PLAYORDER=
